<mxfile host="65bd71144e">
    <diagram id="57k0my2M7IkiMMH7IKEr" name="Página-1">
        <mxGraphModel dx="1972" dy="2113" grid="1" gridSize="10" guides="1" tooltips="1" connect="1" arrows="1" fold="1" page="1" pageScale="1" pageWidth="827" pageHeight="1169" math="0" shadow="0">
            <root>
                <mxCell id="0"/>
                <mxCell id="1" parent="0"/>
                <mxCell id="71" value="" style="whiteSpace=wrap;html=1;fontSize=21;rounded=0;" parent="1" vertex="1">
                    <mxGeometry x="280" y="-150" width="290" height="120" as="geometry"/>
                </mxCell>
                <mxCell id="47" style="edgeStyle=orthogonalEdgeStyle;rounded=0;html=1;entryX=0.75;entryY=1;entryDx=0;entryDy=0;fontSize=21;" parent="1" source="15" target="37" edge="1">
                    <mxGeometry relative="1" as="geometry"/>
                </mxCell>
                <mxCell id="15" value="&lt;font color=&quot;#ffffff&quot;&gt;&lt;span style=&quot;white-space: pre&quot;&gt;&#9;&lt;/span&gt;Matricula&lt;/font&gt;" style="ellipse;whiteSpace=wrap;html=1;aspect=fixed;fontSize=21;align=left;labelBackgroundColor=none;strokeColor=#FFFFFF;fillColor=#000000;strokeWidth=1;fontColor=#333333;" parent="1" vertex="1">
                    <mxGeometry x="220" y="10" width="30" height="30" as="geometry"/>
                </mxCell>
                <mxCell id="39" value="(0,n)" style="edgeStyle=orthogonalEdgeStyle;html=1;entryX=1;entryY=0.5;entryDx=0;entryDy=0;fontSize=21;rounded=0;" parent="1" source="8" target="38" edge="1">
                    <mxGeometry x="-0.5714" y="20" relative="1" as="geometry">
                        <Array as="points">
                            <mxPoint x="790" y="-90"/>
                            <mxPoint x="790" y="-410"/>
                        </Array>
                        <mxPoint as="offset"/>
                    </mxGeometry>
                </mxCell>
                <mxCell id="59" value="(0,n)" style="edgeStyle=orthogonalEdgeStyle;rounded=0;html=1;entryX=1;entryY=0.5;entryDx=0;entryDy=0;fontSize=21;" parent="1" source="8" target="53" edge="1">
                    <mxGeometry x="-0.5556" y="-20" relative="1" as="geometry">
                        <mxPoint as="offset"/>
                    </mxGeometry>
                </mxCell>
                <mxCell id="8" value="Mesa" style="rounded=0;whiteSpace=wrap;html=1;fontSize=21;" parent="1" vertex="1">
                    <mxGeometry x="710" y="-130" width="150" height="80" as="geometry"/>
                </mxCell>
                <mxCell id="50" value="" style="edgeStyle=orthogonalEdgeStyle;rounded=0;html=1;fontSize=21;entryX=0.074;entryY=1.014;entryDx=0;entryDy=0;entryPerimeter=0;" parent="1" source="23" target="8" edge="1">
                    <mxGeometry relative="1" as="geometry">
                        <mxPoint x="635" y="-20" as="targetPoint"/>
                    </mxGeometry>
                </mxCell>
                <mxCell id="23" value="&lt;span style=&quot;white-space: pre&quot;&gt;&#9;&lt;/span&gt;qtcadeiras" style="ellipse;whiteSpace=wrap;html=1;aspect=fixed;fontSize=21;align=left;strokeWidth=1;fillColor=#FFFFFF;strokeColor=#000000;" parent="1" vertex="1">
                    <mxGeometry x="700" y="70" width="30" height="30" as="geometry"/>
                </mxCell>
                <mxCell id="40" value="(0,n)" style="edgeStyle=orthogonalEdgeStyle;html=1;exitX=0;exitY=0.5;exitDx=0;exitDy=0;entryX=0;entryY=0.5;entryDx=0;entryDy=0;fontSize=21;rounded=0;" parent="1" source="37" target="38" edge="1">
                    <mxGeometry x="-0.6364" y="-30" relative="1" as="geometry">
                        <Array as="points">
                            <mxPoint x="40" y="-90"/>
                            <mxPoint x="40" y="-410"/>
                        </Array>
                        <mxPoint as="offset"/>
                    </mxGeometry>
                </mxCell>
                <mxCell id="58" value="(0,n)" style="edgeStyle=orthogonalEdgeStyle;rounded=0;html=1;entryX=0;entryY=0.5;entryDx=0;entryDy=0;fontSize=21;" parent="1" source="37" target="53" edge="1">
                    <mxGeometry x="-0.6842" y="20" relative="1" as="geometry">
                        <Array as="points">
                            <mxPoint x="190" y="-90"/>
                            <mxPoint x="190" y="-90"/>
                        </Array>
                        <mxPoint as="offset"/>
                    </mxGeometry>
                </mxCell>
                <mxCell id="37" value="Garcom" style="rounded=0;whiteSpace=wrap;html=1;fontSize=21;" parent="1" vertex="1">
                    <mxGeometry x="-20" y="-130" width="150" height="80" as="geometry"/>
                </mxCell>
                <mxCell id="38" value="&lt;span style=&quot;font-size: 21px&quot;&gt;Responsável&lt;/span&gt;" style="rhombus;whiteSpace=wrap;html=1;" parent="1" vertex="1">
                    <mxGeometry x="330" y="-450" width="180" height="80" as="geometry"/>
                </mxCell>
                <mxCell id="49" style="edgeStyle=orthogonalEdgeStyle;rounded=0;html=1;entryX=0.25;entryY=1;entryDx=0;entryDy=0;fontSize=21;" parent="1" source="46" target="37" edge="1">
                    <mxGeometry relative="1" as="geometry"/>
                </mxCell>
                <mxCell id="46" value="&lt;span style=&quot;white-space: pre&quot;&gt;&#9;&lt;/span&gt;Nome" style="ellipse;whiteSpace=wrap;html=1;aspect=fixed;fontSize=21;align=left;strokeWidth=1;fillColor=#FFFFFF;strokeColor=#000000;" parent="1" vertex="1">
                    <mxGeometry x="10" y="50" width="30" height="30" as="geometry"/>
                </mxCell>
                <mxCell id="52" style="edgeStyle=orthogonalEdgeStyle;rounded=0;html=1;fontSize=21;" parent="1" source="51" target="8" edge="1">
                    <mxGeometry relative="1" as="geometry"/>
                </mxCell>
                <mxCell id="51" value="&lt;font color=&quot;#ffffff&quot;&gt;&lt;span style=&quot;white-space: pre&quot;&gt;&#9;&lt;/span&gt;Nr&lt;/font&gt;" style="ellipse;whiteSpace=wrap;html=1;aspect=fixed;fontSize=21;align=left;labelBackgroundColor=none;strokeColor=#FFFFFF;fillColor=#000000;strokeWidth=1;fontColor=#333333;" parent="1" vertex="1">
                    <mxGeometry x="770" y="-10" width="30" height="30" as="geometry"/>
                </mxCell>
                <mxCell id="53" value="Atendimento" style="rhombus;whiteSpace=wrap;html=1;fontSize=21;" parent="1" vertex="1">
                    <mxGeometry x="320" y="-130" width="210" height="80" as="geometry"/>
                </mxCell>
                <mxCell id="57" style="edgeStyle=orthogonalEdgeStyle;rounded=0;html=1;entryX=1;entryY=0;entryDx=0;entryDy=0;fontSize=21;" parent="1" source="54" target="53" edge="1">
                    <mxGeometry relative="1" as="geometry"/>
                </mxCell>
                <mxCell id="54" value="&lt;span style=&quot;white-space: pre&quot;&gt;&#9;&lt;/span&gt;DtHrIni" style="ellipse;whiteSpace=wrap;html=1;aspect=fixed;fontSize=21;align=left;strokeWidth=1;fillColor=#FFFFFF;strokeColor=#000000;" parent="1" vertex="1">
                    <mxGeometry x="460" y="-200" width="30" height="30" as="geometry"/>
                </mxCell>
                <mxCell id="56" style="edgeStyle=orthogonalEdgeStyle;rounded=0;html=1;entryX=0;entryY=0;entryDx=0;entryDy=0;fontSize=21;" parent="1" source="55" target="53" edge="1">
                    <mxGeometry relative="1" as="geometry"/>
                </mxCell>
                <mxCell id="55" value="&lt;span style=&quot;white-space: pre&quot;&gt;&#9;&lt;/span&gt;DtHrFim" style="ellipse;whiteSpace=wrap;html=1;aspect=fixed;fontSize=21;align=left;strokeWidth=1;fillColor=#FFFFFF;strokeColor=#000000;" parent="1" vertex="1">
                    <mxGeometry x="320" y="-200" width="30" height="30" as="geometry"/>
                </mxCell>
                <mxCell id="69" value="(0,n)" style="edgeStyle=orthogonalEdgeStyle;rounded=0;html=1;fontSize=21;" parent="1" source="60" target="68" edge="1">
                    <mxGeometry relative="1" as="geometry"/>
                </mxCell>
                <mxCell id="72" value="(0,n)" style="edgeStyle=orthogonalEdgeStyle;rounded=0;html=1;fontSize=21;" parent="1" source="68" target="71" edge="1">
                    <mxGeometry relative="1" as="geometry"/>
                </mxCell>
                <mxCell id="68" value="Pedido" style="rhombus;whiteSpace=wrap;html=1;fontSize=21;rounded=0;" parent="1" vertex="1">
                    <mxGeometry x="320" y="30" width="210" height="80" as="geometry"/>
                </mxCell>
                <mxCell id="73" value="" style="group" vertex="1" connectable="0" parent="1">
                    <mxGeometry x="340" y="160" width="315" height="125" as="geometry"/>
                </mxCell>
                <mxCell id="60" value="Item Cardápio" style="rounded=0;whiteSpace=wrap;html=1;fontSize=21;" parent="73" vertex="1">
                    <mxGeometry y="5" width="210" height="120" as="geometry"/>
                </mxCell>
                <mxCell id="64" style="edgeStyle=orthogonalEdgeStyle;rounded=0;html=1;entryX=0.999;entryY=0.164;entryDx=0;entryDy=0;entryPerimeter=0;fontSize=21;" parent="73" source="61" target="60" edge="1">
                    <mxGeometry relative="1" as="geometry"/>
                </mxCell>
                <mxCell id="61" value="&lt;font color=&quot;#ffffff&quot;&gt;&lt;span style=&quot;white-space: pre&quot;&gt;&#9;&lt;/span&gt;Nr&lt;/font&gt;" style="ellipse;whiteSpace=wrap;html=1;aspect=fixed;fontSize=21;align=left;labelBackgroundColor=none;strokeColor=#FFFFFF;fillColor=#000000;strokeWidth=1;fontColor=#333333;" parent="73" vertex="1">
                    <mxGeometry x="285" width="30" height="30" as="geometry"/>
                </mxCell>
                <mxCell id="65" style="edgeStyle=orthogonalEdgeStyle;rounded=0;html=1;entryX=1;entryY=0.5;entryDx=0;entryDy=0;fontSize=21;" parent="73" source="62" target="60" edge="1">
                    <mxGeometry relative="1" as="geometry"/>
                </mxCell>
                <mxCell id="62" value="&lt;span style=&quot;white-space: pre&quot;&gt;&#9;&lt;/span&gt;Valor" style="ellipse;whiteSpace=wrap;html=1;aspect=fixed;fontSize=21;align=left;strokeWidth=1;fillColor=#FFFFFF;strokeColor=#000000;" parent="73" vertex="1">
                    <mxGeometry x="285" y="40" width="30" height="30" as="geometry"/>
                </mxCell>
                <mxCell id="66" style="edgeStyle=orthogonalEdgeStyle;rounded=0;html=1;entryX=1;entryY=0.75;entryDx=0;entryDy=0;fontSize=21;" parent="73" source="63" target="60" edge="1">
                    <mxGeometry relative="1" as="geometry"/>
                </mxCell>
                <mxCell id="63" value="&lt;span style=&quot;white-space: pre&quot;&gt;&#9;&lt;/span&gt;Descricao" style="ellipse;whiteSpace=wrap;html=1;aspect=fixed;fontSize=21;align=left;strokeWidth=1;fillColor=#FFFFFF;strokeColor=#000000;" parent="73" vertex="1">
                    <mxGeometry x="285" y="80" width="30" height="30" as="geometry"/>
                </mxCell>
            </root>
        </mxGraphModel>
    </diagram>
</mxfile>